<?xml version="1.0" encoding="UTF-8"?>
<svg id="Layer_1" data-name="Layer 1" xmlns="http://www.w3.org/2000/svg" version="1.1" viewBox="0 0 354.55 178.93">
  <defs>
    <style>
      .cls-1 {
        stroke: #4eb748;
      }

      .cls-1, .cls-2 {
        stroke-miterlimit: 10;
      }

      .cls-1, .cls-3 {
        fill: #64be69;
      }

      .cls-2 {
        stroke: #01a5d3;
      }

      .cls-2, .cls-4 {
        fill: #53aee2;
      }

      .cls-4, .cls-3 {
        stroke-width: 0px;
      }
    </style>
  </defs>
  <g>
    <path class="cls-3" d="M147.17,89.47c0,17.87-8.16,33.86-20.96,44.46l20.22,24.47c19.84-16.42,32.5-41.22,32.5-68.93,0-24.66-10.03-47.03-26.23-63.23l-22.45,22.45c10.45,10.45,16.92,24.87,16.92,40.78Z"/>
    <path class="cls-4" d="M89.46,147.17c-31.82,0-57.7-25.88-57.7-57.7s25.89-57.7,57.7-57.7c10.93,0,21.16,3.05,29.88,8.36l22.86-22.86C127.41,6.42,109.17,0,89.46,0,40.13,0,0,40.13,0,89.47s40.13,89.46,89.46,89.46c16.68,0,32.3-4.6,45.69-12.58l-20.6-24.92c-7.59,3.68-16.1,5.75-25.09,5.75Z"/>
  </g>
  <g>
    <path class="cls-1" d="M198.96,123.91c-1.4,1.4-3.24,2.16-5.31,2.16s-3.91-.76-5.32-2.16c-1.96-1.96-1.96-4-1.96-8.41s0-6.45,1.96-8.41c1.4-1.4,3.24-2.16,5.32-2.16s3.91.76,5.31,2.16c1.96,1.96,1.96,4,1.96,8.41s0,6.46-1.96,8.41ZM197.24,108.41c-.91-.93-2.22-1.49-3.59-1.49s-2.69.55-3.59,1.49c-1.31,1.34-1.46,2.75-1.46,7.1s.15,5.75,1.46,7.1c.91.93,2.22,1.49,3.59,1.49s2.69-.55,3.59-1.49c1.31-1.34,1.46-2.75,1.46-7.1s-.15-5.75-1.46-7.1Z"/>
    <path class="cls-1" d="M216.8,117.34h-5.52v8.56h-2.22v-20.79h7.74c3.8,0,6.42,2.37,6.42,6.1s-2.63,6.13-6.42,6.13ZM216.59,107.09h-5.32v8.27h5.32c2.6,0,4.41-1.4,4.41-4.15s-1.81-4.12-4.41-4.12Z"/>
    <path class="cls-1" d="M230.37,125.9v-20.79h2.22v20.79h-2.22Z"/>
    <path class="cls-1" d="M254.79,125.9l-11.04-16.68v16.68h-2.22v-20.79h2.1l11.04,16.62v-16.62h2.22v20.79h-2.1Z"/>
    <path class="cls-1" d="M265.82,125.9v-20.79h2.22v20.79h-2.22Z"/>
    <path class="cls-1" d="M288.77,123.91c-1.4,1.4-3.24,2.16-5.31,2.16s-3.91-.76-5.32-2.16c-1.96-1.96-1.96-4-1.96-8.41s0-6.45,1.96-8.41c1.4-1.4,3.24-2.16,5.32-2.16s3.91.76,5.31,2.16c1.96,1.96,1.96,4,1.96,8.41s0,6.46-1.96,8.41ZM287.05,108.41c-.91-.93-2.22-1.49-3.59-1.49s-2.69.55-3.59,1.49c-1.31,1.34-1.46,2.75-1.46,7.1s.15,5.75,1.46,7.1c.91.93,2.22,1.49,3.59,1.49s2.69-.55,3.59-1.49c1.31-1.34,1.46-2.75,1.46-7.1s-.15-5.75-1.46-7.1Z"/>
    <path class="cls-1" d="M312.13,125.9l-11.04-16.68v16.68h-2.22v-20.79h2.1l11.04,16.62v-16.62h2.22v20.79h-2.1Z"/>
    <path class="cls-1" d="M328.51,126.08c-3.12,0-5.17-.79-7.13-2.75l1.52-1.52c1.72,1.72,3.33,2.28,5.67,2.28,3.04,0,4.91-1.43,4.91-3.86,0-1.08-.32-2.01-.99-2.6-.67-.59-1.2-.76-2.72-.99l-2.42-.38c-1.64-.26-2.92-.79-3.83-1.58-1.05-.93-1.58-2.22-1.58-3.88,0-3.53,2.54-5.87,6.66-5.87,2.66,0,4.41.67,6.19,2.28l-1.43,1.43c-1.29-1.17-2.66-1.78-4.85-1.78-2.77,0-4.38,1.55-4.38,3.86,0,1.02.29,1.84.93,2.39s1.72.96,2.8,1.14l2.28.35c1.96.29,2.92.7,3.8,1.46,1.14.96,1.75,2.39,1.75,4.12,0,3.65-2.86,5.9-7.18,5.9Z"/>
  </g>
  <g>
    <path class="cls-2" d="M190.65,76c-2.05,0-3.91-.76-5.32-2.16-1.96-1.96-1.96-4-1.96-8.41s0-6.46,1.96-8.41c1.4-1.4,3.27-2.16,5.32-2.16,3.74,0,6.51,2.28,7.21,6.19h-2.28c-.56-2.54-2.34-4.21-4.94-4.21-1.37,0-2.69.53-3.59,1.46-1.31,1.34-1.46,2.78-1.46,7.13s.15,5.78,1.46,7.12c.91.94,2.22,1.46,3.59,1.46,2.6,0,4.44-1.66,4.99-4.21h2.22c-.67,3.91-3.5,6.19-7.21,6.19Z"/>
    <path class="cls-2" d="M217.48,73.84c-1.4,1.4-3.24,2.16-5.31,2.16s-3.91-.76-5.32-2.16c-1.96-1.96-1.96-4-1.96-8.41s0-6.46,1.96-8.41c1.4-1.4,3.24-2.16,5.32-2.16s3.91.76,5.31,2.16c1.96,1.96,1.96,4,1.96,8.41s0,6.46-1.96,8.41ZM215.76,58.33c-.91-.93-2.22-1.49-3.59-1.49s-2.69.55-3.59,1.49c-1.31,1.34-1.46,2.75-1.46,7.1s.15,5.75,1.46,7.1c.91.93,2.22,1.49,3.59,1.49s2.69-.55,3.59-1.49c1.31-1.34,1.46-2.75,1.46-7.1s-.15-5.75-1.46-7.1Z"/>
    <path class="cls-2" d="M234.53,76c-4.2,0-7.24-2.89-7.24-7.04v-13.93h2.22v13.76c0,3.15,1.99,5.23,5.02,5.23s5.05-2.07,5.05-5.23v-13.76h2.22v13.93c0,4.15-3.07,7.04-7.27,7.04Z"/>
    <path class="cls-2" d="M263.7,75.82l-11.04-16.68v16.68h-2.22v-20.79h2.1l11.04,16.62v-16.62h2.22v20.79h-2.1Z"/>
    <path class="cls-2" d="M280.84,57.01v18.81h-2.22v-18.81h-6.02v-1.98h14.25v1.98h-6.02Z"/>
    <path class="cls-2" d="M293.65,75.82v-20.79h2.22v20.79h-2.22Z"/>
    <path class="cls-2" d="M318.07,75.82l-11.04-16.68v16.68h-2.22v-20.79h2.1l11.04,16.62v-16.62h2.22v20.79h-2.1Z"/>
    <path class="cls-2" d="M341.14,73.6c-1.46,1.58-3.42,2.39-5.55,2.39s-3.91-.76-5.32-2.16c-1.96-1.96-1.96-4-1.96-8.41s0-6.46,1.96-8.41c1.4-1.4,3.24-2.16,5.32-2.16,3.97,0,6.66,2.57,7.27,6.22h-2.22c-.58-2.63-2.45-4.23-5.05-4.23-1.37,0-2.69.55-3.59,1.49-1.31,1.34-1.46,2.75-1.46,7.1s.15,5.78,1.46,7.12c.91.94,2.22,1.46,3.59,1.46,1.52,0,2.98-.61,3.94-1.78.85-1.02,1.17-2.16,1.17-3.77v-1.58h-5.11v-1.96h7.33v3.3c0,2.4-.5,4-1.78,5.38Z"/>
  </g>
</svg>