<?xml version="1.0" encoding="UTF-8"?>
<svg width="50px" height="50px" viewBox="0 0 50 50" version="1.1" xmlns="http://www.w3.org/2000/svg" xmlns:xlink="http://www.w3.org/1999/xlink">
    <!-- Generator: Sketch 50.2 (55047) - http://www.bohemiancoding.com/sketch -->
    <title>CO_simple_logo</title>
    <desc>Created with Sketch.</desc>
    <defs></defs>
    <g id="Combined-Brand-Guidelines-&amp;-Styleguide" stroke="none" stroke-width="1" fill="none" fill-rule="evenodd">
        <g id="Logo" transform="translate(-420.000000, -397.000000)" fill-rule="nonzero">
            <g id="CO_simple_logo" transform="translate(420.000000, 397.000000)">
                <path d="M41.1111111,25 C41.1111111,30 38.8194444,34.4791667 35.2430556,37.4305556 L40.9027778,44.2708333 C46.4583333,39.6875 50,32.7430556 50,25 C50,18.0902778 47.1875,11.8402778 42.6736111,7.32638889 L36.3888889,13.6111111 C39.3055556,16.5277778 41.1111111,20.5555556 41.1111111,25 Z" id="Shape" fill="#64BE69"></path>
                <path d="M25,41.1111111 C16.1111111,41.1111111 8.88888889,33.8888889 8.88888889,25 C8.88888889,16.1111111 16.1111111,8.88888889 25,8.88888889 C28.0555556,8.88888889 30.9027778,9.75694444 33.3333333,11.2152778 L39.7222222,4.82638889 C35.5902778,1.80555556 30.4861111,5.68434189e-14 25,5.68434189e-14 C11.2152778,5.68434189e-14 0,11.2152778 0,25 C0,38.7847222 11.2152778,50 25,50 C29.6527778,50 34.0277778,48.7152778 37.7777778,46.4930556 L32.0138889,39.5138889 C29.8958333,40.5555556 27.5,41.1111111 25,41.1111111 Z" id="Shape" fill="#53AEE2"></path>
            </g>
        </g>
    </g>
</svg>